G04 #@! TF.FileFunction,Copper,L2,Bot,Signal*
%FSLAX46Y46*%
G04 Gerber Fmt 4.6, Leading zero omitted, Abs format (unit mm)*
G04 Created by KiCad (PCBNEW no-vcs-found-product) date 17.07.2015 (пт) 15,05,13 EEST*
%MOMM*%
G01*
G04 APERTURE LIST*
%ADD10C,0.100000*%
%ADD11R,1.800000X1.800000*%
%ADD12C,1.800000*%
%ADD13C,0.838200*%
%ADD14C,0.900000*%
%ADD15C,0.600000*%
%ADD16C,0.635000*%
%ADD17C,0.304800*%
%ADD18C,0.254000*%
G04 APERTURE END LIST*
D10*
D11*
X25400000Y-22860000D03*
D12*
X25400000Y-20320000D03*
D11*
X24130000Y-29210000D03*
D12*
X21590000Y-29210000D03*
D13*
X16700500Y-25654000D03*
D14*
X21907500Y-25209500D03*
D15*
X20889000Y-24704000D03*
X19494500Y-19621500D03*
D16*
X16700500Y-25654000D02*
X21399500Y-25654000D01*
X21399500Y-25654000D02*
X21844000Y-25209500D01*
X21844000Y-25209500D02*
X21907500Y-25209500D01*
X21907500Y-25209500D02*
X21907500Y-22161500D01*
X23812500Y-20256500D02*
X25400000Y-20256500D01*
X21907500Y-22161500D02*
X23812500Y-20256500D01*
X25400000Y-20256500D02*
X25400000Y-20320000D01*
X21907500Y-25209500D02*
X21907500Y-28765500D01*
X21907500Y-28765500D02*
X21526500Y-29146500D01*
X21526500Y-29146500D02*
X21590000Y-29210000D01*
D17*
X19494500Y-23309500D02*
X19494500Y-19621500D01*
X20889000Y-24704000D02*
X19494500Y-23309500D01*
D18*
G36*
X25593747Y-20334142D02*
X25414142Y-20513747D01*
X25400000Y-20499605D01*
X25385857Y-20513747D01*
X25206252Y-20334142D01*
X25220395Y-20320000D01*
X25206252Y-20305857D01*
X25385857Y-20126252D01*
X25400000Y-20140395D01*
X25414142Y-20126252D01*
X25593747Y-20305857D01*
X25579605Y-20320000D01*
X25593747Y-20334142D01*
X25593747Y-20334142D01*
G37*
X25593747Y-20334142D02*
X25414142Y-20513747D01*
X25400000Y-20499605D01*
X25385857Y-20513747D01*
X25206252Y-20334142D01*
X25220395Y-20320000D01*
X25206252Y-20305857D01*
X25385857Y-20126252D01*
X25400000Y-20140395D01*
X25414142Y-20126252D01*
X25593747Y-20305857D01*
X25579605Y-20320000D01*
X25593747Y-20334142D01*
G36*
X25985000Y-29795000D02*
X25677440Y-29795000D01*
X25677440Y-28310000D01*
X25630463Y-28067877D01*
X25490673Y-27855073D01*
X25279640Y-27712623D01*
X25030000Y-27662560D01*
X23230000Y-27662560D01*
X22987877Y-27709537D01*
X22775073Y-27849327D01*
X22639701Y-28049873D01*
X22605110Y-28015282D01*
X22490553Y-28129838D01*
X22404148Y-27873357D01*
X21830664Y-27663542D01*
X21220540Y-27689161D01*
X20775852Y-27873357D01*
X20689446Y-28129841D01*
X21590000Y-29030395D01*
X21604142Y-29016252D01*
X21783747Y-29195857D01*
X21769605Y-29210000D01*
X21783747Y-29224142D01*
X21604142Y-29403747D01*
X21590000Y-29389605D01*
X21575857Y-29403747D01*
X21396252Y-29224142D01*
X21410395Y-29210000D01*
X20509841Y-28309446D01*
X20253357Y-28395852D01*
X20043542Y-28969336D01*
X20069161Y-29579460D01*
X20158440Y-29795000D01*
X15925000Y-29795000D01*
X15925000Y-19735000D01*
X18559400Y-19735000D01*
X18559338Y-19806667D01*
X18701383Y-20150443D01*
X18707100Y-20156169D01*
X18707100Y-23309500D01*
X18767037Y-23610825D01*
X18937724Y-23866276D01*
X19953843Y-24882395D01*
X19953838Y-24889167D01*
X20095883Y-25232943D01*
X20358673Y-25496192D01*
X20702201Y-25638838D01*
X21074167Y-25639162D01*
X21417943Y-25497117D01*
X21681192Y-25234327D01*
X21823838Y-24890799D01*
X21824162Y-24518833D01*
X21682117Y-24175057D01*
X21419327Y-23911808D01*
X21075799Y-23769162D01*
X21067706Y-23769154D01*
X20281900Y-22983348D01*
X20281900Y-20156610D01*
X20286692Y-20151827D01*
X20429338Y-19808299D01*
X20429401Y-19735000D01*
X23979520Y-19735000D01*
X23853542Y-20079336D01*
X23879161Y-20689460D01*
X24063357Y-21134148D01*
X24319838Y-21220553D01*
X24205282Y-21335110D01*
X24240876Y-21370704D01*
X24045073Y-21499327D01*
X23902623Y-21710360D01*
X23852560Y-21960000D01*
X23852560Y-23760000D01*
X23899537Y-24002123D01*
X24039327Y-24214927D01*
X24250360Y-24357377D01*
X24500000Y-24407440D01*
X25985000Y-24407440D01*
X25985000Y-29795000D01*
X25985000Y-29795000D01*
G37*
X25985000Y-29795000D02*
X25677440Y-29795000D01*
X25677440Y-28310000D01*
X25630463Y-28067877D01*
X25490673Y-27855073D01*
X25279640Y-27712623D01*
X25030000Y-27662560D01*
X23230000Y-27662560D01*
X22987877Y-27709537D01*
X22775073Y-27849327D01*
X22639701Y-28049873D01*
X22605110Y-28015282D01*
X22490553Y-28129838D01*
X22404148Y-27873357D01*
X21830664Y-27663542D01*
X21220540Y-27689161D01*
X20775852Y-27873357D01*
X20689446Y-28129841D01*
X21590000Y-29030395D01*
X21604142Y-29016252D01*
X21783747Y-29195857D01*
X21769605Y-29210000D01*
X21783747Y-29224142D01*
X21604142Y-29403747D01*
X21590000Y-29389605D01*
X21575857Y-29403747D01*
X21396252Y-29224142D01*
X21410395Y-29210000D01*
X20509841Y-28309446D01*
X20253357Y-28395852D01*
X20043542Y-28969336D01*
X20069161Y-29579460D01*
X20158440Y-29795000D01*
X15925000Y-29795000D01*
X15925000Y-19735000D01*
X18559400Y-19735000D01*
X18559338Y-19806667D01*
X18701383Y-20150443D01*
X18707100Y-20156169D01*
X18707100Y-23309500D01*
X18767037Y-23610825D01*
X18937724Y-23866276D01*
X19953843Y-24882395D01*
X19953838Y-24889167D01*
X20095883Y-25232943D01*
X20358673Y-25496192D01*
X20702201Y-25638838D01*
X21074167Y-25639162D01*
X21417943Y-25497117D01*
X21681192Y-25234327D01*
X21823838Y-24890799D01*
X21824162Y-24518833D01*
X21682117Y-24175057D01*
X21419327Y-23911808D01*
X21075799Y-23769162D01*
X21067706Y-23769154D01*
X20281900Y-22983348D01*
X20281900Y-20156610D01*
X20286692Y-20151827D01*
X20429338Y-19808299D01*
X20429401Y-19735000D01*
X23979520Y-19735000D01*
X23853542Y-20079336D01*
X23879161Y-20689460D01*
X24063357Y-21134148D01*
X24319838Y-21220553D01*
X24205282Y-21335110D01*
X24240876Y-21370704D01*
X24045073Y-21499327D01*
X23902623Y-21710360D01*
X23852560Y-21960000D01*
X23852560Y-23760000D01*
X23899537Y-24002123D01*
X24039327Y-24214927D01*
X24250360Y-24357377D01*
X24500000Y-24407440D01*
X25985000Y-24407440D01*
X25985000Y-29795000D01*
M02*
