G04 #@! TF.FileFunction,Copper,L1,Top,Signal*
%FSLAX46Y46*%
G04 Gerber Fmt 4.6, Leading zero omitted, Abs format (unit mm)*
G04 Created by KiCad (PCBNEW no-vcs-found-product) date 17.07.2015 (пт) 15,05,13 EEST*
%MOMM*%
G01*
G04 APERTURE LIST*
%ADD10C,0.100000*%
%ADD11R,1.800000X1.800000*%
%ADD12C,1.800000*%
%ADD13R,1.060000X1.030000*%
%ADD14R,1.016000X1.016000*%
%ADD15R,3.500000X1.600000*%
%ADD16R,1.200000X0.550000*%
%ADD17C,0.838200*%
%ADD18C,0.900000*%
%ADD19C,0.600000*%
%ADD20C,0.304800*%
%ADD21C,0.635000*%
%ADD22C,0.254000*%
G04 APERTURE END LIST*
D10*
D11*
X25400000Y-22860000D03*
D12*
X25400000Y-20320000D03*
D11*
X24130000Y-29210000D03*
D12*
X21590000Y-29210000D03*
D13*
X16065500Y-27686000D03*
X16065500Y-29464000D03*
D14*
X17526000Y-28067000D03*
X19304000Y-28067000D03*
X19812000Y-23368000D03*
X21590000Y-23368000D03*
X23114000Y-21844000D03*
X23114000Y-20066000D03*
X21590000Y-21844000D03*
X21590000Y-20066000D03*
D15*
X17208500Y-23107500D03*
X17208500Y-20707500D03*
D14*
X20066000Y-21844000D03*
X20066000Y-20066000D03*
X23114000Y-23368000D03*
X23114000Y-25146000D03*
D16*
X20096000Y-26604000D03*
X20096000Y-24704000D03*
X17496000Y-26604000D03*
X17496000Y-25654000D03*
X17496000Y-24704000D03*
D14*
X19304000Y-29591000D03*
X17526000Y-29591000D03*
D17*
X16700500Y-25654000D03*
D18*
X21907500Y-25209500D03*
D19*
X20889000Y-24704000D03*
X19494500Y-19621500D03*
D20*
X16065500Y-27686000D02*
X17081500Y-27686000D01*
X17081500Y-27686000D02*
X17462500Y-28067000D01*
X17462500Y-28067000D02*
X17526000Y-28067000D01*
D21*
X20096000Y-26604000D02*
X21524000Y-26604000D01*
X21524000Y-26604000D02*
X24130000Y-29210000D01*
D22*
X20096000Y-26604000D02*
X19111000Y-26604000D01*
X19111000Y-26604000D02*
X17648000Y-28067000D01*
X17648000Y-28067000D02*
X17526000Y-28067000D01*
X17496000Y-24704000D02*
X18227000Y-24704000D01*
X18923000Y-26416000D02*
X19111000Y-26604000D01*
X18923000Y-25400000D02*
X18923000Y-26416000D01*
X18227000Y-24704000D02*
X18923000Y-25400000D01*
D20*
X16700500Y-25654000D02*
X17496000Y-25654000D01*
D21*
X21907500Y-25209500D02*
X23114000Y-25209500D01*
X23114000Y-25209500D02*
X23114000Y-25146000D01*
X23114000Y-20066000D02*
X25146000Y-20066000D01*
X25146000Y-20066000D02*
X25209500Y-20129500D01*
X25209500Y-20129500D02*
X25400000Y-20320000D01*
X21590000Y-20066000D02*
X23241000Y-20066000D01*
X23241000Y-20066000D02*
X23114000Y-20066000D01*
X21590000Y-29210000D02*
X19304000Y-29210000D01*
X19304000Y-29210000D02*
X19304000Y-29591000D01*
X19304000Y-28067000D02*
X19304000Y-29527500D01*
X19304000Y-29527500D02*
X19367500Y-29591000D01*
X19367500Y-29591000D02*
X19304000Y-29591000D01*
X25146000Y-20066000D02*
X25400000Y-20320000D01*
D20*
X19812000Y-23368000D02*
X19812000Y-22098000D01*
X19812000Y-22098000D02*
X20066000Y-21844000D01*
D21*
X23114000Y-21844000D02*
X24320500Y-21844000D01*
X24320500Y-21844000D02*
X25336500Y-22860000D01*
X25336500Y-22860000D02*
X25400000Y-22860000D01*
X21590000Y-21844000D02*
X23050500Y-21844000D01*
X23050500Y-21844000D02*
X23114000Y-21844000D01*
X17208500Y-20707500D02*
X18802500Y-20707500D01*
X18802500Y-20707500D02*
X19939000Y-21844000D01*
X19939000Y-21844000D02*
X21590000Y-21844000D01*
D20*
X20096000Y-24704000D02*
X20889000Y-24704000D01*
X19494500Y-19621500D02*
X19939000Y-20066000D01*
X19939000Y-20066000D02*
X20066000Y-20066000D01*
X21590000Y-23368000D02*
X23114000Y-23368000D01*
X21590000Y-24003000D02*
X21590000Y-23368000D01*
X20889000Y-24704000D02*
X21590000Y-24003000D01*
D21*
X17496000Y-26604000D02*
X16063000Y-26604000D01*
X15748000Y-26289000D02*
X15748000Y-23622000D01*
X16063000Y-26604000D02*
X15748000Y-26289000D01*
X15748000Y-23622000D02*
X16256000Y-23114000D01*
X16256000Y-23114000D02*
X17081500Y-23114000D01*
X17081500Y-23114000D02*
X17208500Y-23107500D01*
D20*
X16065500Y-29464000D02*
X17399000Y-29464000D01*
X17399000Y-29464000D02*
X17526000Y-29591000D01*
D22*
X16002000Y-29337000D02*
X16446500Y-29337000D01*
G36*
X21783747Y-29224142D02*
X21604142Y-29403747D01*
X21590000Y-29389605D01*
X21575857Y-29403747D01*
X21396252Y-29224142D01*
X21410395Y-29210000D01*
X20509841Y-28309446D01*
X20430443Y-28336193D01*
X20288250Y-28194000D01*
X19431000Y-28194000D01*
X19431000Y-28606750D01*
X19431000Y-29051250D01*
X19431000Y-29464000D01*
X19451000Y-29464000D01*
X19451000Y-29718000D01*
X19431000Y-29718000D01*
X19431000Y-29738000D01*
X19177000Y-29738000D01*
X19177000Y-29718000D01*
X19157000Y-29718000D01*
X19157000Y-29464000D01*
X19177000Y-29464000D01*
X19177000Y-29051250D01*
X19177000Y-28606750D01*
X19177000Y-28194000D01*
X19157000Y-28194000D01*
X19157000Y-27940000D01*
X19177000Y-27940000D01*
X19177000Y-27920000D01*
X19431000Y-27920000D01*
X19431000Y-27940000D01*
X20288250Y-27940000D01*
X20447000Y-27781250D01*
X20447000Y-27685309D01*
X20447000Y-27556500D01*
X21129461Y-27556500D01*
X21260447Y-27687485D01*
X21220540Y-27689161D01*
X20775852Y-27873357D01*
X20689446Y-28129841D01*
X21590000Y-29030395D01*
X21604142Y-29016252D01*
X21783747Y-29195857D01*
X21769605Y-29210000D01*
X21783747Y-29224142D01*
X21783747Y-29224142D01*
G37*
X21783747Y-29224142D02*
X21604142Y-29403747D01*
X21590000Y-29389605D01*
X21575857Y-29403747D01*
X21396252Y-29224142D01*
X21410395Y-29210000D01*
X20509841Y-28309446D01*
X20430443Y-28336193D01*
X20288250Y-28194000D01*
X19431000Y-28194000D01*
X19431000Y-28606750D01*
X19431000Y-29051250D01*
X19431000Y-29464000D01*
X19451000Y-29464000D01*
X19451000Y-29718000D01*
X19431000Y-29718000D01*
X19431000Y-29738000D01*
X19177000Y-29738000D01*
X19177000Y-29718000D01*
X19157000Y-29718000D01*
X19157000Y-29464000D01*
X19177000Y-29464000D01*
X19177000Y-29051250D01*
X19177000Y-28606750D01*
X19177000Y-28194000D01*
X19157000Y-28194000D01*
X19157000Y-27940000D01*
X19177000Y-27940000D01*
X19177000Y-27920000D01*
X19431000Y-27920000D01*
X19431000Y-27940000D01*
X20288250Y-27940000D01*
X20447000Y-27781250D01*
X20447000Y-27685309D01*
X20447000Y-27556500D01*
X21129461Y-27556500D01*
X21260447Y-27687485D01*
X21220540Y-27689161D01*
X20775852Y-27873357D01*
X20689446Y-28129841D01*
X21590000Y-29030395D01*
X21604142Y-29016252D01*
X21783747Y-29195857D01*
X21769605Y-29210000D01*
X21783747Y-29224142D01*
G36*
X23261000Y-20193000D02*
X23241000Y-20193000D01*
X23241000Y-20213000D01*
X22987000Y-20213000D01*
X22987000Y-20193000D01*
X22574250Y-20193000D01*
X22129750Y-20193000D01*
X21717000Y-20193000D01*
X21717000Y-20213000D01*
X21463000Y-20213000D01*
X21463000Y-20193000D01*
X21443000Y-20193000D01*
X21443000Y-19939000D01*
X21463000Y-19939000D01*
X21463000Y-19919000D01*
X21717000Y-19919000D01*
X21717000Y-19939000D01*
X22129750Y-19939000D01*
X22574250Y-19939000D01*
X22987000Y-19939000D01*
X22987000Y-19919000D01*
X23241000Y-19919000D01*
X23241000Y-19939000D01*
X23261000Y-19939000D01*
X23261000Y-20193000D01*
X23261000Y-20193000D01*
G37*
X23261000Y-20193000D02*
X23241000Y-20193000D01*
X23241000Y-20213000D01*
X22987000Y-20213000D01*
X22987000Y-20193000D01*
X22574250Y-20193000D01*
X22129750Y-20193000D01*
X21717000Y-20193000D01*
X21717000Y-20213000D01*
X21463000Y-20213000D01*
X21463000Y-20193000D01*
X21443000Y-20193000D01*
X21443000Y-19939000D01*
X21463000Y-19939000D01*
X21463000Y-19919000D01*
X21717000Y-19919000D01*
X21717000Y-19939000D01*
X22129750Y-19939000D01*
X22574250Y-19939000D01*
X22987000Y-19939000D01*
X22987000Y-19919000D01*
X23241000Y-19919000D01*
X23241000Y-19939000D01*
X23261000Y-19939000D01*
X23261000Y-20193000D01*
G36*
X25593747Y-20334142D02*
X25414142Y-20513747D01*
X25400000Y-20499605D01*
X25385857Y-20513747D01*
X25206252Y-20334142D01*
X25220395Y-20320000D01*
X25206252Y-20305857D01*
X25385857Y-20126252D01*
X25400000Y-20140395D01*
X25414142Y-20126252D01*
X25593747Y-20305857D01*
X25579605Y-20320000D01*
X25593747Y-20334142D01*
X25593747Y-20334142D01*
G37*
X25593747Y-20334142D02*
X25414142Y-20513747D01*
X25400000Y-20499605D01*
X25385857Y-20513747D01*
X25206252Y-20334142D01*
X25220395Y-20320000D01*
X25206252Y-20305857D01*
X25385857Y-20126252D01*
X25400000Y-20140395D01*
X25414142Y-20126252D01*
X25593747Y-20305857D01*
X25579605Y-20320000D01*
X25593747Y-20334142D01*
G36*
X25985000Y-29795000D02*
X25677440Y-29795000D01*
X25677440Y-28310000D01*
X25630463Y-28067877D01*
X25490673Y-27855073D01*
X25279640Y-27712623D01*
X25030000Y-27662560D01*
X24257000Y-27662560D01*
X24257000Y-25780309D01*
X24257000Y-25431750D01*
X24098250Y-25273000D01*
X23241000Y-25273000D01*
X23241000Y-26130250D01*
X23399750Y-26289000D01*
X23495691Y-26289000D01*
X23748310Y-26289000D01*
X23981699Y-26192327D01*
X24160327Y-26013698D01*
X24257000Y-25780309D01*
X24257000Y-27662560D01*
X23929598Y-27662560D01*
X22556038Y-26289000D01*
X22732309Y-26289000D01*
X22828250Y-26289000D01*
X22987000Y-26130250D01*
X22987000Y-25273000D01*
X22129750Y-25273000D01*
X21971000Y-25431750D01*
X21971000Y-25779125D01*
X21888506Y-25724005D01*
X21524000Y-25651500D01*
X20096000Y-25651500D01*
X19944878Y-25681560D01*
X19685000Y-25681560D01*
X19685000Y-25626440D01*
X20672343Y-25626440D01*
X20702201Y-25638838D01*
X21074167Y-25639162D01*
X21417943Y-25497117D01*
X21681192Y-25234327D01*
X21823838Y-24890799D01*
X21823845Y-24882706D01*
X21971000Y-24735552D01*
X21971000Y-24860250D01*
X22129750Y-25019000D01*
X22987000Y-25019000D01*
X22987000Y-24999000D01*
X23241000Y-24999000D01*
X23241000Y-25019000D01*
X24098250Y-25019000D01*
X24257000Y-24860250D01*
X24257000Y-24511691D01*
X24170849Y-24303706D01*
X24250360Y-24357377D01*
X24500000Y-24407440D01*
X25985000Y-24407440D01*
X25985000Y-29795000D01*
X25985000Y-29795000D01*
G37*
X25985000Y-29795000D02*
X25677440Y-29795000D01*
X25677440Y-28310000D01*
X25630463Y-28067877D01*
X25490673Y-27855073D01*
X25279640Y-27712623D01*
X25030000Y-27662560D01*
X24257000Y-27662560D01*
X24257000Y-25780309D01*
X24257000Y-25431750D01*
X24098250Y-25273000D01*
X23241000Y-25273000D01*
X23241000Y-26130250D01*
X23399750Y-26289000D01*
X23495691Y-26289000D01*
X23748310Y-26289000D01*
X23981699Y-26192327D01*
X24160327Y-26013698D01*
X24257000Y-25780309D01*
X24257000Y-27662560D01*
X23929598Y-27662560D01*
X22556038Y-26289000D01*
X22732309Y-26289000D01*
X22828250Y-26289000D01*
X22987000Y-26130250D01*
X22987000Y-25273000D01*
X22129750Y-25273000D01*
X21971000Y-25431750D01*
X21971000Y-25779125D01*
X21888506Y-25724005D01*
X21524000Y-25651500D01*
X20096000Y-25651500D01*
X19944878Y-25681560D01*
X19685000Y-25681560D01*
X19685000Y-25626440D01*
X20672343Y-25626440D01*
X20702201Y-25638838D01*
X21074167Y-25639162D01*
X21417943Y-25497117D01*
X21681192Y-25234327D01*
X21823838Y-24890799D01*
X21823845Y-24882706D01*
X21971000Y-24735552D01*
X21971000Y-24860250D01*
X22129750Y-25019000D01*
X22987000Y-25019000D01*
X22987000Y-24999000D01*
X23241000Y-24999000D01*
X23241000Y-25019000D01*
X24098250Y-25019000D01*
X24257000Y-24860250D01*
X24257000Y-24511691D01*
X24170849Y-24303706D01*
X24250360Y-24357377D01*
X24500000Y-24407440D01*
X25985000Y-24407440D01*
X25985000Y-29795000D01*
M02*
