G04 #@! TF.FileFunction,Soldermask,Bot*
%FSLAX46Y46*%
G04 Gerber Fmt 4.6, Leading zero omitted, Abs format (unit mm)*
G04 Created by KiCad (PCBNEW no-vcs-found-product) date 17.07.2015 (пт) 15,05,02 EEST*
%MOMM*%
G01*
G04 APERTURE LIST*
%ADD10C,0.100000*%
%ADD11C,0.254000*%
G04 APERTURE END LIST*
D10*
D11*
X15240000Y-19050000D02*
X26670000Y-19050000D01*
X15240000Y-30480000D02*
X15240000Y-19050000D01*
X26670000Y-30480000D02*
X15240000Y-30480000D01*
X26670000Y-19050000D02*
X26670000Y-30480000D01*
D10*
G36*
X22540841Y-29116769D02*
X22537867Y-29329743D01*
X22537790Y-29330081D01*
X22537790Y-29330085D01*
X22496558Y-29511575D01*
X22420718Y-29681913D01*
X22313236Y-29834278D01*
X22313234Y-29834279D01*
X22178204Y-29962866D01*
X22178201Y-29962870D01*
X22020770Y-30062778D01*
X21846926Y-30130209D01*
X21663300Y-30162586D01*
X21663297Y-30162585D01*
X21476879Y-30158682D01*
X21294765Y-30118640D01*
X21294761Y-30118640D01*
X21123902Y-30043994D01*
X21123898Y-30043991D01*
X20970782Y-29937573D01*
X20841256Y-29803444D01*
X20740251Y-29646715D01*
X20671609Y-29473347D01*
X20637948Y-29289943D01*
X20640552Y-29103501D01*
X20679318Y-28921117D01*
X20752774Y-28749734D01*
X20805448Y-28672806D01*
X20858120Y-28595880D01*
X20858121Y-28595878D01*
X20858122Y-28595878D01*
X20991343Y-28465417D01*
X21147366Y-28363318D01*
X21320251Y-28293469D01*
X21503406Y-28258530D01*
X21689866Y-28259832D01*
X21872521Y-28297326D01*
X22044411Y-28369581D01*
X22198996Y-28473851D01*
X22198998Y-28473852D01*
X22330385Y-28606159D01*
X22433569Y-28761465D01*
X22433569Y-28761466D01*
X22504625Y-28933857D01*
X22540774Y-29116425D01*
X22540773Y-29116430D01*
X22540841Y-29116769D01*
X22540841Y-29116769D01*
G37*
G36*
X25080800Y-30160800D02*
X23179200Y-30160800D01*
X23179200Y-28259200D01*
X25080800Y-28259200D01*
X25080800Y-30160800D01*
X25080800Y-30160800D01*
G37*
G36*
X26350800Y-23810800D02*
X24449200Y-23810800D01*
X24449200Y-21909200D01*
X26350800Y-21909200D01*
X26350800Y-23810800D01*
X26350800Y-23810800D01*
G37*
G36*
X26350841Y-20226769D02*
X26347867Y-20439743D01*
X26347790Y-20440081D01*
X26347790Y-20440085D01*
X26306558Y-20621575D01*
X26230718Y-20791913D01*
X26123236Y-20944278D01*
X26123234Y-20944279D01*
X25988204Y-21072866D01*
X25988201Y-21072870D01*
X25830770Y-21172778D01*
X25656926Y-21240209D01*
X25473300Y-21272586D01*
X25473297Y-21272585D01*
X25286879Y-21268682D01*
X25104765Y-21228640D01*
X25104761Y-21228640D01*
X24933902Y-21153994D01*
X24933898Y-21153991D01*
X24780782Y-21047573D01*
X24651256Y-20913444D01*
X24550251Y-20756715D01*
X24481609Y-20583347D01*
X24447948Y-20399943D01*
X24450552Y-20213501D01*
X24489318Y-20031117D01*
X24562774Y-19859734D01*
X24615448Y-19782806D01*
X24668120Y-19705880D01*
X24668121Y-19705878D01*
X24668122Y-19705878D01*
X24801343Y-19575417D01*
X24957366Y-19473318D01*
X25130251Y-19403469D01*
X25313406Y-19368530D01*
X25499866Y-19369832D01*
X25682521Y-19407326D01*
X25854411Y-19479581D01*
X26008996Y-19583851D01*
X26008998Y-19583852D01*
X26140385Y-19716159D01*
X26243569Y-19871465D01*
X26243569Y-19871466D01*
X26314625Y-20043857D01*
X26350774Y-20226425D01*
X26350773Y-20226430D01*
X26350841Y-20226769D01*
X26350841Y-20226769D01*
G37*
M02*
